<?xml version="1.0" standalone="no"?>
<!DOCTYPE svg PUBLIC "-//W3C//DTD SVG 20010904//EN"
 "http://www.w3.org/TR/2001/REC-SVG-20010904/DTD/svg10.dtd">
<svg version="1.0" xmlns="http://www.w3.org/2000/svg"
 width="820.000000pt" height="820.000000pt" viewBox="0 0 820.000000 820.000000"
 preserveAspectRatio="xMidYMid meet">
<metadata>
Created by potrace 1.11, written by Peter Selinger 2001-2013
</metadata>
<g transform="translate(0.000000,820.000000) scale(0.100000,-0.100000)"
fill="#000000" stroke="none">
<path d="M120 4110 c0 -3265 3 -4090 13 -4090 166 -5 247 -3 247 3 0 5 5 5 10
2 16 -10 150 -11 150 -2 0 5 4 5 10 2 15 -9 1430 -11 1430 -2 0 5 5 5 10 2 16
-10 150 -11 150 -2 0 5 5 5 10 2 16 -10 150 -11 150 -2 0 5 5 5 10 2 16 -10
150 -11 150 -2 0 5 5 5 10 2 16 -10 150 -11 150 -2 0 5 5 5 10 2 16 -10 150
-11 150 -2 0 5 5 5 10 2 16 -10 150 -11 150 -2 0 5 5 5 10 2 16 -10 150 -11
150 -2 0 5 4 5 10 2 15 -9 1430 -11 1430 -2 0 5 5 5 10 2 16 -10 150 -11 150
-2 0 5 5 5 10 2 16 -10 150 -11 150 -2 0 5 5 5 10 2 16 -10 150 -11 150 -2 0
5 5 5 10 2 17 -11 150 -11 150 -1 0 6 5 5 11 -1 5 -5 21 -8 35 -5 l24 4 0
2884 0 2884 1403 0 1402 0 0 1203 0 1202 -2566 2 -2566 3 1 -208 c1 -114 -2
-217 -6 -229 -4 -13 -4 -23 0 -23 9 0 8 -773 -2 -788 -4 -7 -4 -12 1 -12 10 0
9 -212 -1 -229 -4 -6 -4 -11 1 -11 10 0 9 -852 -1 -868 -4 -7 -4 -12 1 -12 10
0 9 -612 -1 -628 -4 -7 -4 -12 1 -12 10 0 9 -772 -1 -788 -4 -7 -4 -12 1 -12
10 0 9 -212 -1 -229 -4 -6 -4 -11 1 -11 10 0 9 -852 -1 -868 -4 -7 -4 -12 1
-12 10 0 9 -452 -1 -468 -4 -7 -4 -12 1 -12 10 0 9 -212 -1 -229 -4 -6 -3 -11
1 -11 9 0 8 -98 -1 -107 -6 -7 -456 -6 -463 1 -3 3 -6 1300 -7 2883 l-1 2878
-1162 2 -1163 3 0 -4090z"/>
<path d="M5729 5290 c-4 -114 -3 -5243 1 -5257 4 -15 16 -18 88 -18 45 0 82 3
82 8 0 4 5 5 10 2 15 -9 470 -11 470 -2 0 5 5 5 10 2 15 -9 470 -11 470 -2 0
5 5 5 11 1 16 -9 109 -11 109 -1 0 5 5 5 11 2 6 -4 246 -8 534 -9 458 -1 524
1 527 14 2 8 4 1201 3 2650 l0 2635 -1162 0 -1163 0 -1 -25z"/>
</g>
</svg>
