<?xml version="1.0" standalone="no"?>
<!DOCTYPE svg PUBLIC "-//W3C//DTD SVG 20010904//EN"
 "http://www.w3.org/TR/2001/REC-SVG-20010904/DTD/svg10.dtd">
<svg version="1.0" xmlns="http://www.w3.org/2000/svg"
 width="700.000000pt" height="700.000000pt" viewBox="0 0 700.000000 700.000000"
 preserveAspectRatio="xMidYMid meet">
<metadata>
Created by potrace 1.11, written by Peter Selinger 2001-2013
</metadata>
<g transform="translate(0.000000,700.000000) scale(0.100000,-0.100000)"
fill="#000000" stroke="none">
<path d="M1448 6755 c-2 -1 -26 -5 -53 -9 -52 -6 -143 -34 -205 -63 -209 -97
-372 -302 -426 -534 -16 -69 -18 -212 -18 -2079 0 -1103 3 -2039 7 -2080 42
-463 276 -862 687 -1171 135 -101 333 -216 490 -283 68 -29 102 -43 135 -57
143 -61 504 -156 700 -184 22 -4 51 -8 65 -10 14 -3 50 -7 80 -10 30 -3 69 -8
85 -10 187 -25 651 -25 845 0 19 2 58 7 85 10 52 6 82 11 138 21 17 3 44 7 59
9 15 2 35 6 45 9 10 3 32 8 48 11 168 29 437 113 630 195 411 177 737 433 942
741 102 151 188 348 229 524 54 233 53 198 51 1435 -2 1292 5 1180 -84 1360
-98 201 -297 341 -556 391 -86 16 -211 14 -317 -6 -56 -11 -169 -59 -234 -99
-187 -117 -314 -304 -356 -524 -6 -33 -10 -410 -10 -990 -1 -1039 3 -974 -69
-1082 -47 -71 -141 -165 -214 -213 -126 -84 -315 -151 -513 -183 -119 -19
-429 -25 -564 -11 -41 4 -82 8 -90 9 -8 0 -33 4 -55 8 -22 5 -56 11 -75 14
-69 10 -212 57 -279 90 -152 77 -245 171 -317 321 l-29 60 -5 1870 c-3 1029
-9 1885 -14 1904 -13 57 -56 171 -83 220 -109 196 -321 348 -538 386 -40 7
-211 15 -217 10z"/>
<path d="M5177 6749 c-386 -64 -662 -388 -660 -774 0 -121 22 -212 78 -330 98
-204 283 -357 505 -417 116 -31 287 -29 405 7 389 115 626 498 551 887 -19 94
-55 192 -99 263 -19 32 -114 148 -134 165 -109 92 -225 154 -343 185 -73 19
-230 27 -303 14z"/>
</g>
</svg>
