<svg xmlns="http://www.w3.org/2000/svg" fill-rule="evenodd" stroke-linejoin="round" stroke-miterlimit="2" clip-rule="evenodd" viewBox="0 0 329 94">
  <style>
  svg{
    color: #000;
  }
  @media(prefers-color-scheme: dark) {
    svg{
      color: #d9d9d9;
    }
  }
  </style>
  <path fill="none" d="M0 0h328.3744v93.1716H0z"/>
  <path fill="url(#_Linear1)" d="M461.875 291.942c0-23.942 19.437-43.379 43.378-43.379h.311c23.941 0 43.378 19.437 43.378 43.379v105.941c.509 3.408.524 6.363 0 8.481v1.084c0 1.985-.133 3.939-.392 5.855-10.707 138.811-299.581 132.324-297.492-7.113V192.552c0-23.942 19.437-43.379 43.378-43.379h.311c23.941 0 43.378 19.437 43.378 43.379v197.737c.231 47.812 121.551 43.686 123.75-.182v-98.165z" transform="matrix(.17299 0 0 .17299 -26.8201087 -16.21465227)"/>
  <circle cx="505.408" cy="199.361" r="43.534" fill="#015767" transform="matrix(.17299 0 0 .17299 -26.75312711 -17.36576697)"/>
  <path fill="#015767" d="M31.76512517 52.1104679c.2904421 15.14989696 11.51302807 16.91538695 17.36563536 17.15255007 3.5801011.14513483 17.93821627-3.14902801 19.07507482-14.58319646-.02594778-14.92380491 0-21.0372854 0-21.0372854s-.13752321-6.54144662-7.53073644-6.77290122c-6.60336294 0-7.53073644 6.61306261-7.53073644 6.61306261v18.05864811c.00743836.09012545-1.2854528 5.64019217-10.77040272 5.5910643-6.54385604-.03373218-9.50605411-1.73175783-10.60883458-5.021942z"/>
  <path fill="url(#_Linear2)" d="M536.393 120.512c-49.664-12.506-45.037 47.959-34.556 79.066 0 0-23.931-10.574-23.931-38.534 0-17.774 18.759-53.685 58.487-40.532z" transform="matrix(-.16739 .04365 .04365 .16739 140.91651363 -32.57639913)"/>
  <g>
    <path fill="currentColor" fill-rule="nonzero" d="M99.59951122 35.4267945v13.89702715c0 3.4398582.61917535 6.05415044 1.9263233 7.8428767 1.30714796 1.78872627 3.37106578 2.6830894 6.19175348 2.6830894 2.82068769 0 4.88460551-.89436313 6.19175347-2.6830894 1.2383507-1.78872626 1.9263233-4.4030185 1.9263233-7.8428767V30.54219586h1.51353974c.3439863 0 .82556713.06879716 1.37594522.13759433.55037808 0 .96316165.13759433 1.2383507.20639149.27518904.13759433.61917534.34398582.96316164.55037731.3439863.27518866.61917535.55037732.75676987.89436314.20639179.34398582.3439863.7567688.48158083 1.30714611.06879726.48158015.13759452 1.10075463.13759452 1.78872627v29.16999756h-1.51353974c-.3439863 0-.82556713-.06879716-1.37594521-.13759432-.5503781-.06879717-.96316166-.13759433-1.2383507-.27518866-.27518904-.06879717-.61917535-.27518866-.96316165-.48158015-.3439863-.27518866-.61917535-.55037731-.75676987-.89436313-.20639178-.34398582-.3439863-.7567688-.48158083-1.30714612-.13759452-.48158015-.13759452-1.10075462-.13759452-1.78872627-.61917534 1.10075463-1.2383507 1.99511776-1.85752604 2.6830894-1.85752604 1.9263206-4.1966329 2.8894809-7.08611786 2.8894809-9.21883295 0-13.82824943-5.3661788-13.82824943-15.96094207V30.54219586h1.582337c.3439863 0 .82556713.06879716 1.37594522.13759433.55037808 0 .96316165.13759433 1.2383507.20639149.27518903.13759433.55037808.34398582.96316164.55037731.3439863.27518866.61917535.55037732.75676987.89436314.20639178.34398582.3439863.7567688.48158083 1.30714611.06879726.48158015.13759452 1.10075463.13759452 1.78872627zM131.8496605 58.54264164V30.54219586h1.582337c.3439863 0 .82556713.06879716 1.37594522.13759433.55037809 0 .96316165.13759433 1.2383507.20639149.27518904.13759433.55037808.34398582.89436439.55037731.41278356.27518866.61917534.55037732.82556713.89436314.13759452.34398582.27518904.7567688.41278356 1.30714611.13759452.48158015.20639178 1.10075463.20639178 1.78872627v22.84065847c0 .89436313.20639179 1.5135376.61917535 1.78872626.41278357.27518866 1.10075617.41278299 2.06391782.41278299 0 1.23834895-.27518904 2.27030641-.96316165 3.02707522-.6879726.7567688-1.78872878 1.10075462-3.23347126 1.10075462-1.78872878 0-3.02707947-.48158015-3.8526466-1.5135376-.75676987-1.03195747-1.16955343-2.54549508-1.16955343-4.54061283zm.41278357-34.53617637c-.82556713-.82556597-1.2383507-1.78872626-1.2383507-2.88948089 0-1.10075462.41278357-2.06391492 1.2383507-2.88948089.75676987-.82556597 1.71993152-1.16955179 2.88948495-1.16955179 1.10075618 0 2.06391783.34398582 2.88948496 1.1695518.75676987.82556596 1.16955343 1.78872626 1.16955343 2.88948088 0 1.10075463-.41278356 2.06391492-1.16955343 2.8894809-.82556713.7567688-1.78872878 1.16955178-2.88948496 1.16955178-1.16955343 0-2.13271508-.34398582-2.88948495-1.16955179zM167.04232597 48.97983583h-19.53842208v-1.58233477c.06879727-.41278299.13759453-.89436314.20639179-1.44474045.13759452-.61917448.3439863-1.10075462.55037808-1.44474044.27518905-.27518866.68797261-.55037732 1.16955344-.82556597.55037808-.27518866 1.10075617-.41278299 1.85752604-.41278299h19.53842207v1.65113194c-.06879726.34398582-.13759452.89436313-.27518904 1.44474045-.06879726.61917447-.27518904 1.10075462-.55037809 1.37594328-.20639178.34398582-.61917535.61917447-1.10075617.89436313-.55037809.27518866-1.16955343.34398582-1.85752604.34398582zM185.39542857 36.5963463c.13759452-.27518866.20639178-.55037731.41278356-.89436313.13759452-.27518866.55037809-.82556597 1.10075618-1.58233478.61917534-.7567688 1.30714795-1.44474044 1.99512056-1.99511776.6879726-.61917447 1.71993152-1.10075462 2.95828221-1.58233477 1.2383507-.48158015 2.54549865-.68797164 4.0590384-.68797164 2.54549864 0 4.81580825.48158015 6.81092881 1.44474044 1.99512057.9631603 3.57745757 2.27030642 4.747011 3.92143836 1.2383507 1.65113193 2.13271509 3.50865536 2.68309317 5.57257029.61917535 2.13271208.8943644 4.33422133.8943644 6.74212207 0 2.47669791-.27518905 4.67820716-.8943644 6.81091925-.55037808 2.06391492-1.44474248 3.92143835-2.68309317 5.57257029-1.16955343 1.65113193-2.75189043 2.95827805-4.747011 3.92143835-1.99512056.9631603-4.26543017 1.44474044-6.81092882 1.44474044-1.51353974 0-2.8206877-.27518865-4.05903839-.7567688-1.2383507-.48158015-2.2703096-1.03195746-2.95828221-1.58233477-.75676987-.61917448-1.37594522-1.30714612-1.99512056-2.06391493-.5503781-.82556597-.8943644-1.37594328-1.10075618-1.7199291-.20639178-.41278298-.27518904-.68797164-.41278356-.89436313v24.21660175h-1.582337c-.3439863-.06879716-.75676987-.06879716-1.30714796-.13759433-.55037808-.06879716-.96316165-.13759433-1.2383507-.27518865-.27518904-.13759433-.61917534-.27518866-.96316164-.55037732-.3439863-.20639149-.61917535-.48158014-.75676987-.82556597-.20639179-.34398582-.3439863-.82556596-.48158083-1.30714611-.13759452-.55037731-.20639178-1.10075463-.20639178-1.85752343V30.54219586h1.582337c.3439863 0 .82556713.06879716 1.37594521.13759433.5503781 0 .96316166.13759433 1.2383507.20639149.27518904.13759433.55037809.34398582.96316165.55037731.3439863.27518866.61917535.55037732.75676987.89436314.20639178.34398582.3439863.7567688.48158083 1.30714611.06879726.48158015.13759452 1.10075463.13759452 1.78872627v1.16955179zm2.33910686 19.88238041c1.582337 2.27030642 3.92144387 3.37106104 7.15491513 3.37106104 3.164674 0 5.57257813-1.16955179 7.15491513-3.37106104 1.51353973-2.20150925 2.33910686-5.22858447 2.33910686-8.94363133s-.82556713-6.67332491-2.33910686-8.87483416c-1.582337-2.27030641-3.99024113-3.37106104-7.15491513-3.37106104-3.23347126 0-5.57257813 1.10075463-7.15491513 3.37106104-1.51353973 2.20150925-2.33910686 5.1597873-2.33910686 8.87483416 0 3.71504686.75676987 6.74212208 2.33910686 8.94363133zM245.94991757 44.71441166v13.55304132c0 .89436313.20639179 1.5135376.61917535 1.78872626.41278357.27518866 1.10075618.41278299 2.06391783.41278299 0 1.23834895-.3439863 2.27030641-.96316165 3.02707522-.68797261.7567688-1.78872879 1.10075462-3.23347126 1.10075462-3.30226852 0-5.02220004-1.9263206-5.02220004-5.71016461 0 .27518865-.13759452.68797164-.27518905 1.10075462-.20639178.41278299-.55037808.9631603-.96316165 1.58233477-.48158082.68797164-1.10075617 1.23834896-1.78872878 1.78872627-.6879726.48158015-1.65113426.9631603-2.8206877 1.30714612-1.16955343.41278298-2.54549864.61917447-3.99024112.61917447-3.71505208 0-6.6733343-.9631603-9.01244117-2.82068372-2.2703096-1.9263206-3.43986304-4.67820716-3.43986304-8.18686253 0-1.65113193.27518904-3.16466954.75676987-4.47181566.48158083-1.37594328 1.16955343-2.4766979 1.99512056-3.30226388.82556713-.89436313 1.85752605-1.65113193 3.02707948-2.27030641 1.2383507-.68797164 2.47670139-1.10075463 3.71505208-1.44474045 1.30714796-.27518865 2.68309318-.5503773 4.19663291-.68797164 1.51353974-.13759432 2.95828222-.13759432 4.33422744-.13759432 1.37594521.06879716 2.82068769.13759432 4.26543017.27518865 0-1.23834895-.06879726-2.27030641-.20639179-3.02707522-.13759452-.7567688-.41278356-1.44474044-.89436439-2.06391492-.41278356-.68797164-1.16955343-1.16955179-2.06391782-1.44474044-.96316165-.27518866-2.20151235-.41278299-3.71505209-.41278299-1.85752604 0-3.64625482.2063915-5.50378086.68797164-1.85752604.41278299-3.23347126.82556597-4.19663291 1.30714612l-1.37594522.61917448c-1.0319589-1.58233478-1.2383507-2.95827806-.75676987-4.19662701.5503781-1.1695518 1.71993152-2.06391492 3.64625483-2.6830894 2.33910687-.7567688 5.02220004-1.1695518 8.18687403-1.1695518 1.65113426 0 3.164674.13759434 4.47182196.412783 1.37594521.20639149 2.47670139.61917447 3.43986304 1.03195745.89436439.48158015 1.71993152 1.03195747 2.33910687 1.78872627.6879726.68797164 1.2383507 1.44474045 1.65113426 2.20150925.41278356.82556597.6879726 1.7199291.96316165 2.82068373.20639178 1.10075462.3439863 2.13271208.41278356 3.16466954.06879726.9631603.13759452 2.1327121.13759452 3.4398582zm-22.15271798 9.5628058c0 1.78872627.55037809 3.16466955 1.71993152 4.12782985 1.16955344.9631603 2.88948496 1.44474044 5.0909973 1.44474044 2.75189043 0 4.88460552-.89436313 6.46694252-2.75188656 1.582337-1.78872627 2.33910687-4.12782984 2.33910687-6.94851357v-2.82068373c-1.44474248-.06879716-2.95828222-.13759433-4.4030247-.20639149-1.44474247-.06879716-2.88948495.06879716-4.26543017.34398582-1.30714795.2063915-2.54549865.61917448-3.57745756 1.10075463-1.03195891.41278298-1.85752604 1.16955178-2.47670139 2.13271208-.61917535.9631603-.89436439 2.13271209-.89436439 3.57745253zM263.9332349 38.66026122c-1.65113426 2.27030641-2.4767014 5.22858447-2.4767014 8.87483416 0 3.71504686.82556714 6.67332492 2.4767014 8.94363133 1.65113426 2.20150925 4.12783565 3.37106104 7.3613069 3.37106104 1.51353974 0 3.23347126-.34398582 5.0909973-.9631603.8943644-.27518865 1.71993153-.41278298 2.4767014-.41278298.75676986-.06879716 1.51353973.2063915 2.13271508.82556597.55037809.61917448.96316165 1.51353761 1.16955344 2.6830894-.13759453.13759433-.27518905.2063915-.48158083.41278298-.20639178.13759433-.6879726.34398582-1.37594522.7567688-.6879726.34398583-1.44474247.68797165-2.2703096.9631603-.75676987.27518866-1.78872879.55037732-2.95828222.82556597-1.2383507.2063915-2.47670139.34398582-3.78384934.34398582-2.75189044 0-5.15979457-.48158014-7.29250965-1.37594328-2.13271509-.82556597-3.8526466-2.06391492-5.15979456-3.6462497-1.37594522-1.65113193-2.40790413-3.50865536-3.09587674-5.64136745-.6879726-2.13271208-1.03195891-4.47181566-1.03195891-7.0861079 0-2.54549507.3439863-4.88459864 1.03195891-7.01731073.6879726-2.13271209 1.71993152-4.05903268 3.09587674-5.64136745 1.30714795-1.58233478 3.02707947-2.82068373 5.15979456-3.71504686 2.13271508-.82556597 4.54061921-1.30714612 7.29250965-1.30714612 1.30714795 0 2.54549865.13759433 3.71505208.34398582 1.2383507.2063915 2.2703096.48158015 3.09587674.82556597.75676987.27518865 1.51353973.61917448 2.20151234.9631603.61917535.27518865 1.10075618.5503773 1.44474248.82556596l.41278357.27518866c-.20639179 1.23834895-.61917535 2.13271209-1.16955344 2.75188656-.61917535.55037732-1.37594522.82556597-2.13271508.82556597-.75676987 0-1.582337-.13759433-2.4767014-.41278298-1.85752604-.61917448-3.57745756-.9631603-5.0909973-.9631603-3.23347125 0-5.71017264 1.10075463-7.3613069 3.37106104zM295.37644965 64.59679207h-1.582337c-.3439863 0-.75676987-.06879716-1.30714796-.13759432-.55037809-.06879717-.96316165-.13759433-1.2383507-.27518866-.27518904-.06879717-.61917534-.27518866-.96316165-.48158015-.3439863-.27518866-.61917534-.55037731-.75676986-.89436313-.20639179-.34398582-.3439863-.7567688-.48158083-1.30714612-.13759452-.48158015-.20639178-1.10075462-.20639178-1.78872627V13.68689066h1.582337c.3439863 0 .82556713.06879717 1.37594521.06879717.55037809.06879716.96316165.20639149 1.2383507.27518865.27518904.13759433.55037808.34398582.96316165.55037732.3439863.27518865.61917535.5503773.75676987.89436313.20639178.34398582.3439863.7567688.48158082 1.30714612.06879726.48158014.13759453 1.10075462.13759453 1.78872626v25.38615354l13.27787133-12.0395037c.68797261-.68797165 1.51353974-1.10075463 2.40790413-1.37594329.96316165-.27518866 1.9263233-.2063915 2.95828222.06879716 1.03195891.34398582 1.85752604.9631603 2.54549865 1.9263206l-13.82824943 12.52108386 14.79141108 19.5383946c-4.19663291.96316029-7.29250965.13759432-9.28763021-2.47669791l-10.04440008-12.93386685-2.8206877 2.54549507v12.86506968z" />
  </g>
  <defs>
    <linearGradient id="_Linear1" x1="0" x2="1" y1="0" y2="0" gradientTransform="matrix(.84428 -237.918 237.918 .84428 297.076 444.388)" gradientUnits="userSpaceOnUse">
      <stop offset="0" stop-color="#3da9ab"/>
      <stop offset="1" stop-color="#003b46"/>
    </linearGradient>
    <linearGradient id="_Linear2" x1="0" x2="1" y1="0" y2="0" gradientTransform="matrix(4.28904 -55.4686 -55.4686 -4.28904 490.334 178.399)" gradientUnits="userSpaceOnUse">
      <stop offset="0" stop-color="#008197"/>
      <stop offset="1" stop-color="#003b46"/>
    </linearGradient>
  </defs>
</svg>
