<svg xmlns="http://www.w3.org/2000/svg" fill-rule="evenodd" stroke-linejoin="round" stroke-miterlimit="2" clip-rule="evenodd" viewBox="0 0 329 94">
  <path fill="none" d="M0 0h328.3744v93.1716H0z"/>
  <path fill="url(#_Linear1)" d="M461.875 291.942c0-23.942 19.437-43.379 43.378-43.379h.311c23.941 0 43.378 19.437 43.378 43.379v105.941c.509 3.408.524 6.363 0 8.481v1.084c0 1.985-.133 3.939-.392 5.855-10.707 138.811-299.581 132.324-297.492-7.113V192.552c0-23.942 19.437-43.379 43.378-43.379h.311c23.941 0 43.378 19.437 43.378 43.379v197.737c.231 47.812 121.551 43.686 123.75-.182v-98.165z" transform="matrix(.17299 0 0 .17299 -26.8201087 -16.21465227)"/>
  <circle cx="505.408" cy="199.361" r="43.534" fill="#015767" transform="matrix(.17299 0 0 .17299 -26.75312711 -17.36576697)"/>
  <path fill="#015767" d="M31.76512517 52.1104679c.2904421 15.14989696 11.51302807 16.91538695 17.36563536 17.15255007 3.5801011.14513483 17.93821627-3.14902801 19.07507482-14.58319646-.02594778-14.92380491 0-21.0372854 0-21.0372854s-.13752321-6.54144662-7.53073644-6.77290122c-6.60336294 0-7.53073644 6.61306261-7.53073644 6.61306261v18.05864811c.00743836.09012545-1.2854528 5.64019217-10.77040272 5.5910643-6.54385604-.03373218-9.50605411-1.73175783-10.60883458-5.021942z"/>
  <path fill="url(#_Linear2)" d="M536.393 120.512c-49.664-12.506-45.037 47.959-34.556 79.066 0 0-23.931-10.574-23.931-38.534 0-17.774 18.759-53.685 58.487-40.532z" transform="matrix(-.16739 .04365 .04365 .16739 140.91651363 -32.57639913)"/>
  <defs>
    <linearGradient id="_Linear1" x1="0" x2="1" y1="0" y2="0" gradientTransform="matrix(.84428 -237.918 237.918 .84428 297.076 444.388)" gradientUnits="userSpaceOnUse">
      <stop offset="0" stop-color="#3da9ab"/>
      <stop offset="1" stop-color="#003b46"/>
    </linearGradient>
    <linearGradient id="_Linear2" x1="0" x2="1" y1="0" y2="0" gradientTransform="matrix(4.28904 -55.4686 -55.4686 -4.28904 490.334 178.399)" gradientUnits="userSpaceOnUse">
      <stop offset="0" stop-color="#008197"/>
      <stop offset="1" stop-color="#003b46"/>
    </linearGradient>
  </defs>
</svg>
